<svg version="1.1" id="Layer_1" xmlns="http://www.w3.org/2000/svg" x="0" y="0" viewBox="0 0 482.58 99.11" xml:space="preserve"><style>.st5{fill:#001970}</style><path d="M178.94 20.51c1.95 0 3.9.71 5.37 2.03a.7.7 0 0 0 1 0l3.1-3.22c.32-.32.32-.79-.04-1.12-2.7-2.45-5.64-3.69-9.62-3.69-7.96 0-14.35 6.4-14.35 14.35 0 7.96 6.4 14.27 14.35 14.27 3.54 0 6.96-1.23 9.66-3.86.28-.28.32-.79.04-1.08l-3.1-3.3c-.24-.28-.76-.28-1.04-.04-1.43 1.23-3.46 1.91-5.33 1.91-4.49 0-7.83-3.66-7.83-8.08-.01-4.43 3.3-8.17 7.79-8.17M214.12 14.5c-7.95 0-14.27 6.4-14.27 14.36 0 7.96 6.32 14.27 14.27 14.27 7.95 0 14.31-6.32 14.31-14.27.01-7.95-6.35-14.36-14.31-14.36m0 22.28c-4.33 0-7.91-3.58-7.91-7.92 0-4.37 3.58-7.99 7.91-7.99 4.38 0 7.95 3.62 7.95 7.99.01 4.34-3.57 7.92-7.95 7.92M257.54 36.9h-9.59V15.66c0-.41-.36-.76-.75-.76h-4.74c-.44 0-.75.35-.75.76v26.32c0 .4.31.75.75.75h15.08c.44 0 .76-.36.76-.75v-4.33c0-.4-.32-.75-.76-.75M283.51 14.5c-7.96 0-14.28 6.4-14.28 14.36 0 7.96 6.32 14.27 14.28 14.27 7.96 0 14.32-6.32 14.32-14.27 0-7.95-6.36-14.36-14.32-14.36m0 22.28c-4.34 0-7.92-3.58-7.92-7.92 0-4.37 3.58-7.99 7.92-7.99 4.38 0 7.96 3.62 7.96 7.99 0 4.34-3.58 7.92-7.96 7.92M327.34 31.49c3.46-1.4 5.88-4.34 5.88-8 0-4.73-3.9-8.59-8.66-8.59h-11.9c-.45 0-.76.35-.76.75v26.32c0 .4.31.75.76.75h4.73c.39 0 .76-.36.76-.75V31.85h2.74l5.68 10.53c.07.16.32.36.64.36h5.28c.68 0 .95-.63.68-1.15l-5.83-10.1zm-3.3-4.7h-5.89v-6.2h5.89c1.63 0 3.02 1.35 3.02 3.02.01 1.68-1.38 3.18-3.02 3.18M397.39 14.91h-9.7c-.4 0-.72.35-.72.75v26.32c0 .4.32.75.72.75h9.7c7.67 0 13.95-6.24 13.95-13.96 0-7.62-6.28-13.86-13.95-13.86m-.4 21.94h-3.82v-16.1h3.82c4.49 0 7.75 3.53 7.75 8.03 0 4.53-3.26 8.07-7.75 8.07M438.08 14.5c-7.96 0-14.28 6.4-14.28 14.36 0 7.96 6.32 14.27 14.28 14.27 7.95 0 14.31-6.32 14.31-14.27 0-7.95-6.36-14.36-14.31-14.36m0 22.28c-4.34 0-7.92-3.58-7.92-7.92 0-4.37 3.58-7.99 7.92-7.99 4.37 0 7.95 3.62 7.95 7.99 0 4.34-3.58 7.92-7.95 7.92M360.69 14.95c-.12-.24-.39-.44-.67-.44h-.4c-.28 0-.56.2-.68.44L346.49 41.7c-.25.52.08 1.04.67 1.04h4.37c.79 0 1.15-.24 1.43-.95l1.43-3.18h10.84l1.43 3.14c.41.86.57.99 1.39.99h4.41c.6 0 .92-.51.68-1.04l-12.45-26.75zm-4.51 18.94l3.62-8.33 3.66 8.33h-7.28z"/><g><path d="M174.11 65.42c5.67 0 9.93 4.29 9.93 9.77 0 5.64-4.26 10.04-9.93 10.04s-9.93-4.4-9.93-10.04c0-5.48 4.26-9.77 9.93-9.77zm0 16.71c3.46 0 6.29-3 6.29-6.94 0-3.78-2.83-6.67-6.29-6.67s-6.29 2.89-6.29 6.67c0 3.94 2.84 6.94 6.29 6.94zM186.16 82.34h2V73.7h-2.13v-2.56h2.13v-.62c0-4.45 3.56-5.02 5.4-5.02.81 0 1.4.11 1.4.11v2.75s-.35-.08-1.05-.08c-.78 0-2.32.16-2.32 2.16v.7h6.26v-.62c0-4.45 3.54-5.02 5.37-5.02.84 0 1.43.11 1.43.11v2.75s-.35-.08-1.05-.08c-.78 0-2.35.16-2.35 2.16v.7h9.69v11.2h2v2.56h-7.42v-2.56h2V73.7h-6.26v8.64h2.35v2.56h-7.75v-2.56h2V73.7h-6.26v8.64h2.32v2.56h-7.75v-2.56zm21.32-16.6h3.48v3.05h-3.48v-3.05zM221.77 70.82c2.29 0 5.64.86 5.64 3.29V76h-2.97v-.92c0-.92-1.4-1.35-2.56-1.35-2.51 0-4.05 1.73-4.05 4.24 0 2.83 1.97 4.37 4.32 4.37 1.94 0 3.54-1.08 4.29-1.67l1.21 2.43c-.95.89-3.08 2.13-5.7 2.13-4.02 0-7.58-2.73-7.58-7.18 0-4.1 3.16-7.23 7.4-7.23zM229.49 82.34h2V73.7h-2.13v-2.56h5.56v11.2h1.97v2.56h-7.4v-2.56zm1.97-16.6h3.46v3.05h-3.46v-3.05zM245.93 76.41h.86v-.46c0-1.75-1.11-2.38-2.54-2.38-2.05 0-3.89 1.32-3.89 1.32l-1.27-2.38s2.13-1.7 5.45-1.7c3.7 0 5.67 1.92 5.67 5.42v5.51c0 .41.22.59.59.59h1.24v2.56h-3.24c-1.27 0-1.75-.67-1.75-1.46v-.16c0-.43.08-.7.08-.7h-.05s-1.16 2.65-4.35 2.65c-2.35 0-4.56-1.38-4.56-4.18.01-4.2 5.55-4.63 7.76-4.63zm-2.29 6.26c1.86 0 3.18-2 3.18-3.73v-.46h-.57c-1.35 0-4.62.22-4.62 2.29.01 1.03.74 1.9 2.01 1.9zM254.44 68.31h-2.13v-2.56h5.53v14.58c0 1.24.27 1.89 1.4 1.89.38 0 .65-.03.65-.03v2.75s-.57.08-1.24.08c-2.19 0-4.21-.73-4.21-4.48V68.31zM271.45 78.73v1.43c0 1.24 1.57 1.97 3.37 1.97 1.94 0 3.32-.84 3.32-2.38 0-1.94-2.19-2.56-4.4-3.43-2.56-.97-5.07-2.13-5.07-5.56 0-3.86 3.13-5.34 6.42-5.34 3.02 0 6.07 1.16 6.07 3.38v2.51h-3.21v-1.3c0-.97-1.43-1.48-2.86-1.48-1.57 0-2.86.65-2.86 2.11 0 1.75 1.78 2.38 3.78 3.13 2.86 1.03 5.72 2.16 5.72 5.75 0 3.91-3.29 5.72-6.91 5.72-3.19 0-6.59-1.43-6.59-4.32v-2.19h3.22zM285.38 73.71h-2.11v-2.56h2.21V67.4h3.32v3.75h3.13v2.56h-3.13v5.8c0 2.35 1.78 2.67 2.75 2.67.38 0 .62-.03.62-.03v2.81s-.43.08-1.05.08c-1.94 0-5.75-.57-5.75-5.18v-6.15zM301.25 76.41h.86v-.46c0-1.75-1.11-2.38-2.54-2.38-2.05 0-3.89 1.32-3.89 1.32l-1.27-2.38s2.13-1.7 5.45-1.7c3.7 0 5.67 1.92 5.67 5.42v5.51c0 .41.22.59.59.59h1.24v2.56h-3.24c-1.27 0-1.75-.67-1.75-1.46v-.16c0-.43.08-.7.08-.7h-.05s-1.16 2.65-4.35 2.65c-2.35 0-4.56-1.38-4.56-4.18.02-4.2 5.55-4.63 7.76-4.63zm-2.29 6.26c1.86 0 3.19-2 3.19-3.73v-.46h-.57c-1.35 0-4.62.22-4.62 2.29 0 1.03.73 1.9 2 1.9zM310.38 73.71h-2.11v-2.56h2.21V67.4h3.32v3.75h3.13v2.56h-3.13v5.8c0 2.35 1.78 2.67 2.75 2.67.38 0 .62-.03.62-.03v2.81s-.43.08-1.05.08c-1.94 0-5.75-.57-5.75-5.18v-6.15zM325.69 70.82c3.97 0 6.13 2.89 6.13 6.53 0 .4-.08 1.16-.08 1.16h-9.53c.22 2.54 2.05 3.83 4.13 3.83 2.24 0 4-1.46 4-1.46l1.32 2.43s-2.11 1.92-5.56 1.92c-4.56 0-7.4-3.29-7.4-7.21 0-4.23 2.86-7.2 6.99-7.2zm2.59 5.67c-.05-1.89-1.21-3.02-2.67-3.02-1.75 0-3 1.21-3.32 3.02h5.99zM339.41 65.74h7.48v2.67h-2.24l2.48 10.93c.16.78.22 1.67.22 1.67h.11s.08-.89.3-1.67l3.59-13.6h2.83l3.59 13.6c.22.78.3 1.67.3 1.67h.11s.05-.89.22-1.67l2.48-10.93h-2.24v-2.67h7.48v2.67h-1.75l-4.08 16.49h-3.97l-3.21-12.09c-.22-.78-.3-1.75-.3-1.75h-.08s-.08.97-.3 1.75l-3.21 12.09h-3.97l-4.08-16.49h-1.75v-2.67zM374.15 70.82c3.97 0 6.13 2.89 6.13 6.53 0 .4-.08 1.16-.08 1.16h-9.53c.22 2.54 2.05 3.83 4.13 3.83 2.24 0 4-1.46 4-1.46l1.32 2.43s-2.11 1.92-5.56 1.92c-4.56 0-7.4-3.29-7.4-7.21 0-4.23 2.86-7.2 6.99-7.2zm2.6 5.67c-.05-1.89-1.21-3.02-2.67-3.02-1.75 0-3 1.21-3.32 3.02h5.99zM383.15 68.31h-2.11v-2.56h5.53v5.97c0 .67-.05 1.16-.05 1.16h.05s1.24-2.05 4.13-2.05c3.72 0 6.13 2.94 6.13 7.21 0 4.37-2.7 7.21-6.34 7.21-3 0-4.1-2.19-4.1-2.19h-.05s.05.49.05 1.03v.84h-3.24V68.31zm6.74 14.03c1.89 0 3.48-1.54 3.48-4.26 0-2.62-1.4-4.32-3.43-4.32-1.78 0-3.46 1.3-3.46 4.35.01 2.13 1.12 4.23 3.41 4.23zM405.37 82.26h2.29V68.42h-2.29v-2.67h9.18c1.13 0 2.29.08 3.24.49 2.08.86 3.43 3 3.43 5.67 0 2.73-1.43 5.05-3.64 5.83-.89.3-1.86.38-2.94.38h-3.43v4.16h2.32v2.65h-8.15v-2.67zm8.8-6.99c.81 0 1.4-.11 1.94-.38 1.03-.51 1.57-1.59 1.57-3 0-1.32-.51-2.35-1.4-2.86-.54-.32-1.21-.46-2.08-.46h-3v6.69h2.97zM430.12 70.82c4.21 0 7.58 3 7.58 7.21 0 4.24-3.37 7.21-7.56 7.21-4.21 0-7.58-2.97-7.58-7.21.01-4.22 3.38-7.21 7.56-7.21zm.03 11.5c2.21 0 4.08-1.73 4.08-4.29 0-2.54-1.86-4.29-4.08-4.29-2.24 0-4.1 1.75-4.1 4.29 0 2.56 1.86 4.29 4.1 4.29zM439.6 82.34h2V74.3c0-.38-.22-.59-.59-.59h-1.54v-2.56h3.59c1.21 0 1.84.51 1.84 1.67v.81c0 .51-.05.86-.05.86h.05c.62-1.97 2.27-3.54 4.37-3.54.32 0 .62.05.62.05v3.37s-.35-.05-.84-.05c-2.78 0-4.02 2.43-4.02 5.02v3H447v2.56h-7.4v-2.56zM452.75 73.71h-2.11v-2.56h2.21V67.4h3.32v3.75h3.13v2.56h-3.13v5.8c0 2.35 1.78 2.67 2.75 2.67.38 0 .62-.03.62-.03v2.81s-.43.08-1.05.08c-1.94 0-5.75-.57-5.75-5.18v-6.15zM468.63 76.41h.86v-.46c0-1.75-1.11-2.38-2.54-2.38-2.05 0-3.89 1.32-3.89 1.32l-1.27-2.38s2.13-1.7 5.45-1.7c3.7 0 5.67 1.92 5.67 5.42v5.51c0 .41.22.59.59.59h1.24v2.56h-3.24c-1.27 0-1.75-.67-1.75-1.46v-.16c0-.43.08-.7.08-.7h-.05s-1.16 2.65-4.35 2.65c-2.35 0-4.56-1.38-4.56-4.18.01-4.2 5.54-4.63 7.76-4.63zm-2.3 6.26c1.86 0 3.19-2 3.19-3.73v-.46h-.57c-1.35 0-4.62.22-4.62 2.29 0 1.03.73 1.9 2 1.9zM477.13 68.31H475v-2.56h5.53v14.58c0 1.24.27 1.89 1.4 1.89.38 0 .65-.03.65-.03v2.75s-.57.08-1.24.08c-2.19 0-4.21-.73-4.21-4.48V68.31z"/></g><path d="M147.08.11h1.3v99h-1.3z"/><g><path d="M43.48 80.63c-1.52-1.89-2.9-3.89-4.14-6-.07-.1-.16-.22-.23-.32-.9-1.66-1.77-3.34-2.52-5.07-.22-.52-.44-1.04-.64-1.57-2.59-6.64-3.7-13.5-3.36-20.62.41-7.75 2.56-15.02 6.39-21.76.03-.1.06-.22.12-.32 1.06-1.71 2.14-3.38 3.35-4.98-.55-1-1.14-2.04-1.78-3.19C36.76 9.84 34.78 6.47 30.84 0 26.89 6.59 24.92 10.01 21 17.09c-3.93 6.85-5.88 10.41-9.73 17.76 3.17-.83 4.78-1.15 8-1.64-.82 2.01-1.23 3.02-2.05 5.06-4.66 9.25-9.1 18.66-13.28 28.14 3.28-1.21 4.94-1.72 8.31-2.55A1309.7 1309.7 0 0 0 0 94.59c21.66-7.47 39.36-7.57 61.07-.19-4.46-2.08-8.64-4.87-12.52-8.38a48.656 48.656 0 0 1-5.07-5.39z" fill="#245d38"/><path d="M82.23 25.67a24.05 24.05 0 0 0-18.53 8.68l-.12.14c-3.52 4.27-5.47 9.72-5.47 15.31 0 .24.01.45.01.67l14.62-12.75 9.98 8.71 9.98-8.71 13.66 11.92c-.02-3.18-.64-6.25-1.85-9.13-3.77-9.01-12.5-14.84-22.28-14.84z" fill="#ffd100"/><path d="M39 25.29c-3.83 6.74-5.99 14.01-6.39 21.76-.35 7.12.76 13.98 3.36 20.62.2.53.42 1.05.64 1.57l18.91-16.49c-.04-.34-.08-.68-.1-1.02a26.952 26.952 0 0 1 6.07-19.04l.13-.14c5.09-6.11 12.62-9.64 20.63-9.64 10.9 0 20.64 6.5 24.82 16.55 0 0 0 .01.01.01 6.67-2.7 13.32-5.39 19.99-8.07.45-.19.58-.32.35-.82-.81-1.9-1.77-3.76-2.75-5.6-.09-.16-.19-.32-.29-.45-9-14.48-22.01-22.52-39-24.09-4.87-.45-9.71 0-14.48 1.13-11.29 2.66-20.56 8.55-27.8 17.62-.21.27-.41.54-.62.81-1.2 1.6-2.28 3.27-3.35 4.98-.07.09-.1.21-.13.31z" fill="#c3002f"/><path d="M72.73 37.73L58.12 50.48a24.011 24.011 0 0 0 3.45 11.79c.42.67.76 1.18 1.09 1.64l20.05-17.47-9.98-8.71z" fill="#7a853b"/><path d="M59.23 63.77a26.94 26.94 0 0 1-3.73-11.02L36.59 69.24c.75 1.74 1.62 3.42 2.52 5.07.07.1.16.22.23.32 1.24 2.1 2.62 4.11 4.14 6l.73-.63 16.36-14.27c-.02-.03-.05-.06-.07-.1-.4-.52-.8-1.12-1.27-1.86z" fill="#6d3a5d"/><path class="st5" d="M126.8 67.8c-6.54-2.66-13.08-5.28-19.63-7.92v.01c-.73 1.82-1.68 3.57-2.82 5.21a26.9 26.9 0 0 1-22.12 11.6c-8.53 0-16.61-4.1-21.67-10.97L44.21 80l-.72.63a48.62 48.62 0 0 0 5.06 5.39c3.88 3.51 8.06 6.29 12.52 8.38 6 2.8 12.52 4.33 19.54 4.56 5.09.19 10.1-.48 15-1.93 9.58-2.82 17.61-8.07 24.09-15.7a47 47 0 0 0 1.25-1.55c1.33-1.74 2.54-3.57 3.68-5.47.95-1.74 1.87-3.5 2.63-5.34.06-.19.12-.32.16-.42l.06-.16-.06-.25c-.09-.12-.28-.18-.62-.34z"/><path d="M82.71 46.44l19.16 16.71.28.24c.98-1.43 1.8-2.96 2.44-4.54 1.17-2.86 1.76-5.9 1.76-9.04v-.15L92.69 37.73l-9.98 8.71z" fill="#35647e"/><path class="st5" d="M82.71 46.44L62.66 63.91l.06.09a24.206 24.206 0 0 0 19.51 9.93c7.92 0 15.33-3.89 19.84-10.41.03-.04.06-.09.08-.13l-.28-.24-19.16-16.71z"/><g><path d="M111.4 93.93h-1.06c-.08 0-.13-.06-.13-.13v-.57c0-.07.06-.13.13-.13h3.03c.08 0 .13.06.13.13v.57c0 .07-.06.13-.13.13h-1.06v3.9c0 .07-.06.13-.13.13h-.64c-.07 0-.13-.06-.13-.13v-3.9zM115.35 93.14c.01-.06.05-.1.12-.1h.11c.06 0 .1.03.12.07l1.53 3.28h.02l1.53-3.28c.02-.04.05-.07.12-.07h.11c.08 0 .12.05.12.1l.82 4.66c.02.1-.03.16-.12.16h-.63c-.06 0-.12-.06-.13-.1l-.41-2.63h-.02l-1.21 2.73c-.01.04-.05.08-.12.08h-.12a.12.12 0 0 1-.12-.08l-1.23-2.73h-.02l-.4 2.63c-.01.05-.06.1-.12.1h-.62c-.09 0-.15-.06-.13-.16l.8-4.66z"/></g></g></svg>